<svg xmlns="http://www.w3.org/2000/svg" viewBox="0 0 360 220" width="360" height="220" role="img" aria-labelledby="t">
<title id="t">Von oben: Wind von links oben. Boot A rechts oben führt einen schwarzen Kegel, Boot B links unten segelt; beide laufen aufeinander zu.</title>
<rect width="360" height="220" fill="#dce9f2"/>
<line x1="30.0" y1="30.0" x2="61.4" y2="53.5" stroke="#3a6ea5" stroke-width="6.0"/><polygon points="70.0,60.0 56.7,59.8 66.0,47.3" fill="#3a6ea5"/><text x="50.0" y="33.0" font-family="system-ui, sans-serif" font-size="14" text-anchor="middle" fill="#3a6ea5">Wind</text><g transform="translate(280.0 70.0) rotate(200.0)"><path d="M0 -34 C 14 -20, 14 20, 6 32 L -6 32 C -14 20, -14 -20, 0 -34 Z" fill="#f7f7f7" stroke="#1a1a1a" stroke-width="2.5"/><path d="M0 -8 Q 18 10 6 26" fill="none" stroke="#1a1a1a" stroke-width="3"/><circle cx="0" cy="-8" r="3" fill="#1a1a1a"/><polygon points="-7,-6 7,-6 0,6" fill="#1a1a1a" transform="translate(0 -18)"/></g><text x="310.0" y="76.0" font-family="system-ui, sans-serif" font-size="18" font-weight="700" fill="#1a1a1a">A</text><g transform="translate(90.0 150.0) rotate(30.0)"><path d="M0 -34 C 14 -20, 14 20, 6 32 L -6 32 C -14 20, -14 -20, 0 -34 Z" fill="#f7f7f7" stroke="#1a1a1a" stroke-width="2.5"/><path d="M0 -8 Q -18 10 -6 26" fill="none" stroke="#1a1a1a" stroke-width="3"/><circle cx="0" cy="-8" r="3" fill="#1a1a1a"/></g><text x="120.0" y="156.0" font-family="system-ui, sans-serif" font-size="18" font-weight="700" fill="#1a1a1a">B</text><line x1="90" y1="150" x2="200" y2="100" stroke="#1a1a1a" stroke-width="1.5" stroke-dasharray="6 5"/><line x1="280" y1="70" x2="215" y2="100" stroke="#1a1a1a" stroke-width="1.5" stroke-dasharray="6 5"/>
</svg>
