<svg xmlns="http://www.w3.org/2000/svg" viewBox="0 0 360 220" width="360" height="220" role="img" aria-labelledby="t">
<title id="t">Von oben: Wind von oben. Boot A links segelt nach rechts oben mit Wind von Backbord, Boot B rechts nach links oben mit Wind von Steuerbord; Kollisionskurs.</title>
<rect width="360" height="220" fill="#dce9f2"/>
<line x1="180.0" y1="20.0" x2="180.0" y2="45.2" stroke="#3a6ea5" stroke-width="6.0"/><polygon points="180.0,56.0 172.2,45.2 187.8,45.2" fill="#3a6ea5"/><text x="180.0" y="26.0" font-family="system-ui, sans-serif" font-size="14" text-anchor="middle" fill="#3a6ea5">Wind</text><g transform="translate(80.0 150.0) rotate(40.0)"><path d="M0 -34 C 14 -20, 14 20, 6 32 L -6 32 C -14 20, -14 -20, 0 -34 Z" fill="#f7f7f7" stroke="#1a1a1a" stroke-width="2.5"/><path d="M0 -8 Q 18 10 6 26" fill="none" stroke="#1a1a1a" stroke-width="3"/><circle cx="0" cy="-8" r="3" fill="#1a1a1a"/></g><text x="110.0" y="156.0" font-family="system-ui, sans-serif" font-size="18" font-weight="700" fill="#1a1a1a">A</text><g transform="translate(280.0 150.0) rotate(-40.0)"><path d="M0 -34 C 14 -20, 14 20, 6 32 L -6 32 C -14 20, -14 -20, 0 -34 Z" fill="#f7f7f7" stroke="#1a1a1a" stroke-width="2.5"/><path d="M0 -8 Q -18 10 -6 26" fill="none" stroke="#1a1a1a" stroke-width="3"/><circle cx="0" cy="-8" r="3" fill="#1a1a1a"/></g><text x="310.0" y="156.0" font-family="system-ui, sans-serif" font-size="18" font-weight="700" fill="#1a1a1a">B</text><line x1="80" y1="150" x2="170" y2="80" stroke="#1a1a1a" stroke-width="1.5" stroke-dasharray="6 5"/><line x1="280" y1="150" x2="190" y2="80" stroke="#1a1a1a" stroke-width="1.5" stroke-dasharray="6 5"/>
</svg>
