<svg xmlns="http://www.w3.org/2000/svg" viewBox="0 0 360 220" width="360" height="220" role="img" aria-labelledby="t">
<title id="t">Von oben: Wind von rechts. Drei Boote A, B und C nebeneinander segeln nach oben; A ist am weitesten in Lee (links), C am weitesten in Luv (rechts).</title>
<rect width="360" height="220" fill="#dce9f2"/>
<line x1="334.0" y1="120.0" x2="302.8" y2="120.0" stroke="#3a6ea5" stroke-width="6.0"/><polygon points="292.0,120.0 302.8,112.2 302.8,127.8" fill="#3a6ea5"/><text x="313.0" y="108.0" font-family="system-ui, sans-serif" font-size="14" text-anchor="middle" fill="#3a6ea5">Wind</text><g transform="translate(70.0 120.0) rotate(0.0)"><path d="M0 -34 C 14 -20, 14 20, 6 32 L -6 32 C -14 20, -14 -20, 0 -34 Z" fill="#f7f7f7" stroke="#1a1a1a" stroke-width="2.5"/><path d="M0 -8 Q -18 10 -6 26" fill="none" stroke="#1a1a1a" stroke-width="3"/><circle cx="0" cy="-8" r="3" fill="#1a1a1a"/></g><text x="100.0" y="126.0" font-family="system-ui, sans-serif" font-size="18" font-weight="700" fill="#1a1a1a">A</text><g transform="translate(160.0 120.0) rotate(0.0)"><path d="M0 -34 C 14 -20, 14 20, 6 32 L -6 32 C -14 20, -14 -20, 0 -34 Z" fill="#f7f7f7" stroke="#1a1a1a" stroke-width="2.5"/><path d="M0 -8 Q -18 10 -6 26" fill="none" stroke="#1a1a1a" stroke-width="3"/><circle cx="0" cy="-8" r="3" fill="#1a1a1a"/></g><text x="190.0" y="126.0" font-family="system-ui, sans-serif" font-size="18" font-weight="700" fill="#1a1a1a">B</text><g transform="translate(250.0 120.0) rotate(0.0)"><path d="M0 -34 C 14 -20, 14 20, 6 32 L -6 32 C -14 20, -14 -20, 0 -34 Z" fill="#f7f7f7" stroke="#1a1a1a" stroke-width="2.5"/><path d="M0 -8 Q -18 10 -6 26" fill="none" stroke="#1a1a1a" stroke-width="3"/><circle cx="0" cy="-8" r="3" fill="#1a1a1a"/></g><text x="280.0" y="126.0" font-family="system-ui, sans-serif" font-size="18" font-weight="700" fill="#1a1a1a">C</text>
</svg>
